<svg width="18" height="18" viewBox="0 0 18 18" fill="none" xmlns="http://www.w3.org/2000/svg">
<rect width="18" height="18" rx="4" fill="#FF4738"/>
<path d="M12.9807 7.11561C12.947 7.0452 12.8743 7.00002 12.7942 7.00002H10.3545L12.7623 3.30701C12.8024 3.24541 12.8049 3.16741 12.7687 3.10362C12.7324 3.03961 12.6632 3 12.5883 3H9.2942C9.21617 3 9.14492 3.0428 9.10994 3.1106L6.02171 9.11061C5.98979 9.17242 5.99329 9.24601 6.03076 9.305C6.06844 9.364 6.13453 9.4 6.20597 9.4H8.32304L6.01614 14.7224C5.97681 14.8134 6.01182 14.919 6.09848 14.9706C6.13182 14.9904 6.16888 15 6.20575 15C6.26484 15 6.3231 14.9754 6.36347 14.929L12.9517 7.32899C13.0034 7.26941 13.0145 7.1862 12.9807 7.11561Z" fill="white"/>
</svg>
