<svg width="8" height="9" viewBox="0 0 8 9" fill="none" xmlns="http://www.w3.org/2000/svg">
<path d="M4.09429 8.51948C6.20303 8.55022 7.93576 6.83271 7.96677 4.68485C7.93188 2.53316 6.19915 0.815646 4.09429 0.846384C1.98555 0.815646 0.252813 2.53316 0.221802 4.68485C0.252813 6.83271 1.98555 8.55022 4.09429 8.51948Z" fill="#FFC800"/>
<path d="M5.75725 7.54354C4.44316 8.29664 3.01666 8.43112 2.10571 7.98157C3.31514 8.69624 4.80754 8.70392 6.02471 8.00846C7.23026 7.33222 7.97452 6.03351 7.95902 4.62723C7.90475 5.63391 7.07133 6.79045 5.75725 7.54354Z" fill="black"/>
<path d="M4.58271 1.13071C4.85018 1.58795 4.20671 2.45247 3.14458 3.05956C2.08246 3.66664 1.00871 3.78959 0.741242 3.33236C0.729613 3.30931 0.717983 3.28625 0.710231 3.2632C0.659838 2.98271 0.737365 2.69838 0.923431 2.48321C0.954441 2.4371 0.989329 2.39484 1.02422 2.34873C1.33432 1.94913 1.72196 1.61485 2.15999 1.3651C2.59802 1.10766 3.08256 0.946284 3.58261 0.880964C3.64076 0.87328 3.69503 0.865595 3.7493 0.861753C4.02839 0.811803 4.31525 0.884807 4.5362 1.06924C4.5517 1.08845 4.57109 1.10766 4.58271 1.13071Z" fill="black"/>
<path d="M6.23017 1.62253C6.69534 2.42173 5.75726 3.82033 4.13306 4.75017C2.50887 5.68001 0.814896 5.78375 0.353609 4.98455C0.276082 4.85007 0.233442 4.70022 0.225689 4.54269C0.206308 5.09214 0.303217 5.63775 0.516416 6.14493C0.547427 6.22178 0.582315 6.29862 0.621078 6.37547L0.624955 6.387C0.772256 6.62906 0.98158 6.82502 1.22967 6.95182C2.14061 7.43595 3.67953 7.27073 5.12153 6.44463C6.55966 5.62238 7.47448 4.38131 7.50937 3.35925C7.52488 3.07877 7.45898 2.80212 7.31943 2.56005C7.26516 2.48321 7.21089 2.40636 7.15275 2.33336C6.8155 1.90302 6.39298 1.54952 5.91231 1.29977C6.04411 1.38046 6.15265 1.49189 6.23017 1.62253V1.62253V1.62253Z" fill="black"/>
<path d="M4.09429 8.51948C6.20303 8.55022 7.93576 6.83271 7.96677 4.68485C7.93188 2.53316 6.19915 0.815646 4.09429 0.846384C1.98555 0.815646 0.252813 2.53316 0.221802 4.68485C0.252813 6.83271 1.98555 8.55022 4.09429 8.51948Z" fill="url(#paint0_radial_1_2)"/>
<defs>
<radialGradient id="paint0_radial_1_2" cx="0" cy="0" r="1" gradientUnits="userSpaceOnUse" gradientTransform="translate(4.09349 4.6843) scale(3.87006 3.83456)">
<stop offset="0.5" stop-color="white" stop-opacity="0.01"/>
<stop offset="1" stop-color="white" stop-opacity="0.35"/>
</radialGradient>
</defs>
</svg>
